<svg width="58" height="29" viewBox="0 0 58 29" fill="none" xmlns="http://www.w3.org/2000/svg">
<path d="M52.6241 18.5414L52.6241 28.7068M47.5414 23.6241L57.7068 23.6241L47.5414 23.6241Z" stroke="#191B1E" stroke-miterlimit="10"/>
<path d="M52.6241 18.5414L52.6241 28.7068M47.5414 23.6241L57.7068 23.6241L47.5414 23.6241Z" stroke="#191B1E" stroke-width="2" stroke-miterlimit="10"/>
<path d="M29.1656 18.5414L29.1656 28.7068M24.0829 23.6241L34.2483 23.6241L24.0829 23.6241Z" stroke="#191B1E" stroke-miterlimit="10"/>
<path d="M29.1656 18.5414L29.1656 28.7068M24.0829 23.6241L34.2483 23.6241L24.0829 23.6241Z" stroke="var(--color-primary) !important" stroke-width="2" stroke-miterlimit="10"/>
<path d="M5.7066 18.5414L5.7066 28.7068M0.623894 23.6241L10.7893 23.6241L0.623894 23.6241Z" stroke="#191B1E" stroke-miterlimit="10"/>
<path d="M5.7066 18.5414L5.7066 28.7068M0.623894 23.6241L10.7893 23.6241L0.623894 23.6241Z" stroke="#191B1E" stroke-width="2" stroke-miterlimit="10"/>
<path d="M52.6241 0.37609L52.6241 10.5415M47.5414 5.4588L57.7068 5.4588L47.5414 5.4588Z" stroke="#191B1E" stroke-miterlimit="10"/>
<path d="M52.6241 0.37609L52.6241 10.5415M47.5414 5.4588L57.7068 5.4588L47.5414 5.4588Z" stroke="#191B1E" stroke-width="2" stroke-miterlimit="10"/>
<path d="M29.1656 0.37609L29.1656 10.5415M24.0829 5.4588L34.2483 5.4588L24.0829 5.4588Z" stroke="#191B1E" stroke-miterlimit="10"/>
<path d="M29.1656 0.37609L29.1656 10.5415M24.0829 5.4588L34.2483 5.4588L24.0829 5.4588Z" stroke="var(--color-primary) !important" stroke-width="2" stroke-miterlimit="10"/>
<path d="M5.7066 0.37609L5.7066 10.5415M0.623894 5.4588L10.7893 5.4588L0.623894 5.4588Z" stroke="#191B1E" stroke-miterlimit="10"/>
<path d="M5.7066 0.37609L5.7066 10.5415M0.623894 5.4588L10.7893 5.4588L0.623894 5.4588Z" stroke="#191B1E" stroke-width="2" stroke-miterlimit="10"/>
</svg>
