<svg width="27" height="51" viewBox="0 0 27 51" fill="none" xmlns="http://www.w3.org/2000/svg">
<path d="M4.70875 34.2445L8.35221 37.9552L9.42287 36.8632L4.70875 32.0549L0 36.8632L1.07067 37.9552L4.70875 34.2445Z" class="fill-primary"/>
<path d="M4.70875 40.7261L8.35221 44.4369L9.42287 43.3449L4.70875 38.5366L0 43.3449L1.07067 44.4369L4.70875 40.7261Z" class="fill-primary"/>
<path d="M4.70875 47.2838L8.35221 51L9.42287 49.9025L4.70875 45.0997L0 49.9025L1.07067 51L4.70875 47.2838Z" class="fill-primary"/>
<path d="M4.70875 21.2053L8.35221 24.916L9.42287 23.824L4.70875 19.0157L0 23.824L1.07067 24.916L4.70875 21.2053Z" class="fill-primary"/>
<path d="M4.70875 27.6868L8.35221 31.3976L9.42287 30.3056L4.70875 25.4973L0 30.3056L1.07067 31.3976L4.70875 27.6868Z" class="fill-primary"/>
<path d="M22.2868 15.2288L25.9302 18.9396L27.0009 17.8476L22.2868 13.0393L17.578 17.8476L18.6487 18.9396L22.2868 15.2288Z" fill="#191B1E"/>
<path d="M22.2868 21.7105L25.9302 25.4213L27.0009 24.3292L22.2868 19.521L17.578 24.3292L18.6487 25.4213L22.2868 21.7105Z" fill="#191B1E"/>
<path d="M22.2868 28.2682L25.9302 31.9844L27.0009 30.8869L22.2868 26.0841L17.578 30.8869L18.6487 31.9844L22.2868 28.2682Z" fill="#191B1E"/>
<path d="M22.2868 2.18953L25.9302 5.9003L27.0009 4.80825L22.2868 0L17.578 4.80825L18.6487 5.9003L22.2868 2.18953Z" fill="#191B1E"/>
<path d="M22.2868 8.67121L25.9302 12.382L27.0009 11.2899L22.2868 6.48169L17.578 11.2899L18.6487 12.382L22.2868 8.67121Z" fill="#191B1E"/>
</svg>
