<svg width="29" height="58" viewBox="0 0 29 58" fill="none" xmlns="http://www.w3.org/2000/svg">
<path d="M18.1654 5.08271L28.3308 5.08271M23.2481 10.1654L23.2481 -2.22172e-07L23.2481 10.1654Z" stroke="#191B1E" stroke-miterlimit="10"/>
<path d="M18.1654 5.08271L28.3308 5.08271M23.2481 10.1654L23.2481 -2.22172e-07L23.2481 10.1654Z" stroke="#191B1E" stroke-width="2" stroke-miterlimit="10"/>
<path d="M18.1654 28.5412L28.3308 28.5412M23.2481 33.6239L23.2481 23.4585L23.2481 33.6239Z" stroke="#191B1E" stroke-miterlimit="10"/>
<path d="M18.1654 28.5412L28.3308 28.5412M23.2481 33.6239L23.2481 23.4585L23.2481 33.6239Z" stroke="var(--color-primary) !important" stroke-width="2" stroke-miterlimit="10"/>
<path d="M18.1654 52.0002L28.3308 52.0002M23.2481 57.0829L23.2481 46.9175L23.2481 57.0829Z" stroke="#191B1E" stroke-miterlimit="10"/>
<path d="M18.1654 52.0002L28.3308 52.0002M23.2481 57.0829L23.2481 46.9175L23.2481 57.0829Z" stroke="#191B1E" stroke-width="2" stroke-miterlimit="10"/>
<path d="M-8.44761e-06 5.08271L10.1654 5.08271M5.0827 10.1654L5.0827 -2.22172e-07L5.0827 10.1654Z" stroke="#191B1E" stroke-miterlimit="10"/>
<path d="M-8.44761e-06 5.08271L10.1654 5.08271M5.0827 10.1654L5.0827 -2.22172e-07L5.0827 10.1654Z" stroke="#191B1E" stroke-width="2" stroke-miterlimit="10"/>
<path d="M-8.44761e-06 28.5412L10.1654 28.5412M5.0827 33.6239L5.0827 23.4585L5.0827 33.6239Z" stroke="#191B1E" stroke-miterlimit="10"/>
<path d="M-8.44761e-06 28.5412L10.1654 28.5412M5.0827 33.6239L5.0827 23.4585L5.0827 33.6239Z" stroke=" var(--color-primary) !important" stroke-width="2" stroke-miterlimit="10"/>
<path d="M-8.44761e-06 52.0002L10.1654 52.0002M5.0827 57.0829L5.0827 46.9175L5.0827 57.0829Z" stroke="#191B1E" stroke-miterlimit="10"/>
<path d="M-8.44761e-06 52.0002L10.1654 52.0002M5.0827 57.0829L5.0827 46.9175L5.0827 57.0829Z" stroke="#191B1E" stroke-width="2" stroke-miterlimit="10"/>
</svg>
