<svg width="51" height="27" viewBox="0 0 51 27" fill="none" xmlns="http://www.w3.org/2000/svg">
<path d="M16.756 4.70839L13.0453 8.35184L14.1373 9.42251L18.9456 4.70839L14.1373 -0.000366421L13.0453 1.0703L16.756 4.70839Z" class="fill-primary"/>
<path d="M10.2744 4.70839L6.56359 8.35184L7.65562 9.42251L12.4639 4.70839L7.65562 -0.000366421L6.56359 1.0703L10.2744 4.70839Z" class="fill-primary"/>
<path d="M3.71666 4.70839L0.000460947 8.35184L1.09795 9.42251L5.90076 4.70839L1.09795 -0.000366421L0.000461265 1.0703L3.71666 4.70839Z" class="fill-primary"/>
<path d="M29.7952 4.70839L26.0844 8.35184L27.1765 9.42251L31.9847 4.70839L27.1765 -0.000366421L26.0844 1.0703L29.7952 4.70839Z" class="fill-primary"/>
<path d="M23.3137 4.70839L19.6029 8.35184L20.6949 9.42251L25.5032 4.70839L20.6949 -0.000366421L19.6029 1.0703L23.3137 4.70839Z" class="fill-primary"/>
<path d="M35.7716 22.2864L32.0609 25.9298L33.1529 27.0005L37.9612 22.2864L33.1529 17.5776L32.0609 18.6483L35.7716 22.2864Z" fill="#191B1E"/>
<path d="M29.29 22.2864L25.5792 25.9298L26.6712 27.0005L31.4795 22.2864L26.6712 17.5776L25.5792 18.6483L29.29 22.2864Z" fill="#191B1E"/>
<path d="M22.7323 22.2864L19.0161 25.9298L20.1136 27.0005L24.9164 22.2864L20.1136 17.5776L19.0161 18.6483L22.7323 22.2864Z" fill="#191B1E"/>
<path d="M48.811 22.2864L45.1002 25.9298L46.1922 27.0005L51.0005 22.2864L46.1922 17.5776L45.1002 18.6483L48.811 22.2864Z" fill="#191B1E"/>
<path d="M42.3293 22.2864L38.6185 25.9298L39.7106 27.0005L44.5188 22.2864L39.7106 17.5776L38.6185 18.6483L42.3293 22.2864Z" fill="#191B1E"/>
</svg>
